<svg width="52" height="52" viewBox="0 0 52 52" fill="none" xmlns="http://www.w3.org/2000/svg">
<circle cx="26" cy="26" r="26" fill="black"/>
<mask id="mask0_6_21" style="mask-type:alpha" maskUnits="userSpaceOnUse" x="9" y="8" width="34" height="37">
<path d="M37.523 31.2322H25.5271C24.9528 31.2322 24.446 30.8241 24.278 30.2263L20.4572 16.6322H17.2551C16.5337 16.6322 15.9489 15.9958 15.9489 15.2107C15.9489 14.4257 16.5337 13.7892 17.2551 13.7892H21.4234C21.9978 13.7892 22.5046 14.1974 22.6725 14.7948L26.4937 28.3893H36.6549L39.5036 21.0123H29.3622C28.6408 21.0123 28.056 20.3759 28.056 19.5909C28.056 18.8058 28.6408 18.1694 29.3622 18.1694H41.4689C41.9063 18.1694 42.3149 18.4078 42.5568 18.8042C42.7986 19.201 42.8426 19.7029 42.6732 20.1416L38.727 30.3615C38.5232 30.8891 38.0489 31.2322 37.523 31.2322Z" fill="black"/>
<path d="M24.658 37.7494C25.6504 37.7494 26.4549 36.8739 26.4549 35.7939C26.4549 34.7139 25.6504 33.8384 24.658 33.8384C23.6655 33.8384 22.861 34.7139 22.861 35.7939C22.861 36.8739 23.6655 37.7494 24.658 37.7494Z" fill="black"/>
<path d="M37.9962 37.7494C38.9887 37.7494 39.7932 36.8739 39.7932 35.7939C39.7932 34.7139 38.9887 33.8384 37.9962 33.8384C37.0038 33.8384 36.1992 34.7139 36.1992 35.7939C36.1992 36.8739 37.0038 37.7494 37.9962 37.7494Z" fill="black"/>
<path d="M18.6789 31.2322H12.4288C11.7074 31.2322 11.1226 30.5958 11.1226 29.8108C11.1226 29.0257 11.7074 28.3893 12.4288 28.3893H18.6789C19.4003 28.3893 19.9851 29.0257 19.9851 29.8108C19.9851 30.5958 19.4003 31.2322 18.6789 31.2322Z" fill="black"/>
<path d="M16.7431 25.334H10.493C9.77162 25.334 9.18681 24.6976 9.18681 23.9125C9.18681 23.1275 9.77162 22.4911 10.493 22.4911H16.7431C17.4645 22.4911 18.0493 23.1275 18.0493 23.9125C18.0493 24.6976 17.4645 25.334 16.7431 25.334Z" fill="black"/>
</mask>
<g mask="url(#mask0_6_21)">
<rect x="-11.8387" y="-12.2903" width="67.0097" height="68.3939" fill="#27B643"/>
</g>
</svg>
